<svg width="1024" height="1024" viewBox="0 0 1024 1024" fill="none" xmlns="http://www.w3.org/2000/svg">
<g clip-path="url(#clip0)">
<rect x="344.77" y="334.819" width="360.948" height="464.138" fill="#51398E"/>
<path d="M723.472 418.418C701.895 380.571 672.626 350.607 635.659 328.52C598.686 306.431 558.322 295.39 514.54 295.39C470.763 295.39 430.386 306.435 393.421 328.52C356.45 350.606 327.182 380.571 305.605 418.418C284.03 456.265 273.243 497.593 273.243 542.403C273.243 596.229 288.583 644.631 319.271 687.622C349.956 730.615 389.597 760.365 438.189 776.875C443.846 777.949 448.033 777.194 450.755 774.626C453.479 772.055 454.839 768.836 454.839 764.981C454.839 764.337 454.785 758.55 454.681 747.613C454.573 736.675 454.522 727.133 454.522 718.991L447.296 720.271C442.688 721.135 436.875 721.501 429.858 721.398C422.844 721.298 415.562 720.545 408.023 719.146C400.48 717.759 393.465 714.543 386.971 709.504C380.481 704.465 375.873 697.869 373.149 689.726L370.008 682.325C367.913 677.397 364.616 671.923 360.112 665.923C355.608 659.918 351.053 655.846 346.446 653.702L344.246 652.09C342.78 651.019 341.42 649.727 340.162 648.227C338.905 646.728 337.965 645.227 337.336 643.725C336.707 642.221 337.228 640.987 338.907 640.019C340.585 639.052 343.618 638.582 348.018 638.582L354.3 639.543C358.489 640.402 363.671 642.97 369.852 647.261C376.03 651.548 381.109 657.123 385.089 663.981C389.909 672.775 395.716 679.476 402.527 684.087C409.332 688.698 416.193 690.999 423.104 690.999C430.015 690.999 435.984 690.463 441.013 689.396C446.037 688.323 450.75 686.711 455.151 684.569C457.036 670.196 462.168 659.155 470.544 651.437C458.606 650.153 447.873 648.218 438.34 645.646C428.812 643.071 418.967 638.892 408.809 633.097C398.647 627.31 390.216 620.123 383.516 611.55C376.814 602.973 371.314 591.712 367.023 577.777C362.73 563.838 360.583 547.757 360.583 529.532C360.583 503.582 368.859 481.499 385.406 463.272C377.655 443.762 378.386 421.891 387.604 397.661C393.678 395.729 402.687 397.179 414.624 402.002C426.564 406.827 435.306 410.96 440.859 414.387C446.412 417.813 450.861 420.716 454.213 423.071C473.696 417.498 493.803 414.711 514.537 414.711C535.272 414.711 555.383 417.498 574.868 423.071L586.806 415.355C594.971 410.207 604.612 405.489 615.706 401.2C626.808 396.913 635.297 395.733 641.164 397.665C650.586 421.896 651.426 443.766 643.672 463.275C660.219 481.503 668.497 503.591 668.497 529.535C668.497 547.761 666.342 563.892 662.056 577.939C657.764 591.988 652.217 603.238 645.412 611.711C638.599 620.184 630.115 627.314 619.957 633.1C609.798 638.891 599.949 643.07 590.421 645.645C580.889 648.221 570.156 650.156 558.219 651.443C569.107 661.088 574.552 676.313 574.552 697.112V764.972C574.552 768.827 575.861 772.045 578.483 774.617C581.1 777.185 585.235 777.94 590.891 776.865C639.49 760.357 679.131 730.606 709.815 687.613C740.495 644.622 755.841 596.22 755.841 542.394C755.83 497.59 745.037 456.265 723.472 418.418Z" fill="white"/>
<path d="M828.249 785.195H786.774L772.074 770.684C823.524 709.415 854.499 629.872 854.499 543.343C854.499 350.398 701.724 194 513.25 194C324.775 194 172 350.398 172 543.343C172 736.287 324.775 892.685 513.25 892.685C597.775 892.685 675.474 860.975 735.324 808.305L749.499 823.354V865.813L1012 1134L1090.22 1053.92L828.249 785.195ZM513.25 785.195C382.525 785.195 277 677.168 277 543.343C277 409.517 382.525 301.49 513.25 301.49C643.974 301.49 749.499 409.517 749.499 543.343C749.499 677.168 643.974 785.195 513.25 785.195Z" fill="#51398E"/>
</g>
<defs>
<clipPath id="clip0">
<rect width="1024" height="1024" fill="white"/>
</clipPath>
</defs>
</svg>
